<svg width="257" height="51" viewBox="0 0 257 51" fill="none" xmlns="http://www.w3.org/2000/svg">
<g filter="url(#filter0_d_113_5186)">
<rect x="1" width="255" height="47" rx="8" fill="#FFF967"/>
<rect x="1.5" y="0.5" width="254" height="46" rx="7.5" stroke="#BCB500"/>
</g>
<rect x="6" y="3" width="245" height="21" rx="8" fill="#FFFB91"/>
<path d="M36.1155 28.16H30.2955L29.2955 31H26.9155L31.8955 17.08H34.5355L39.5155 31H37.1155L36.1155 28.16ZM35.4755 26.3L33.2155 19.84L30.9355 26.3H35.4755ZM40.6008 25.44C40.6008 24.3333 40.8274 23.3533 41.2808 22.5C41.7474 21.6467 42.3741 20.9867 43.1608 20.52C43.9608 20.04 44.8474 19.8 45.8208 19.8C46.5408 19.8 47.2474 19.96 47.9408 20.28C48.6474 20.5867 49.2074 21 49.6208 21.52V16.2H51.9208V31H49.6208V29.34C49.2474 29.8733 48.7274 30.3133 48.0608 30.66C47.4074 31.0067 46.6541 31.18 45.8008 31.18C44.8408 31.18 43.9608 30.94 43.1608 30.46C42.3741 29.9667 41.7474 29.2867 41.2808 28.42C40.8274 27.54 40.6008 26.5467 40.6008 25.44ZM49.6208 25.48C49.6208 24.72 49.4608 24.06 49.1408 23.5C48.8341 22.94 48.4274 22.5133 47.9208 22.22C47.4141 21.9267 46.8674 21.78 46.2808 21.78C45.6941 21.78 45.1474 21.9267 44.6408 22.22C44.1341 22.5 43.7208 22.92 43.4008 23.48C43.0941 24.0267 42.9408 24.68 42.9408 25.44C42.9408 26.2 43.0941 26.8667 43.4008 27.44C43.7208 28.0133 44.1341 28.4533 44.6408 28.76C45.1608 29.0533 45.7074 29.2 46.2808 29.2C46.8674 29.2 47.4141 29.0533 47.9208 28.76C48.4274 28.4667 48.8341 28.04 49.1408 27.48C49.4608 26.9067 49.6208 26.24 49.6208 25.48ZM53.8355 25.44C53.8355 24.3333 54.0621 23.3533 54.5155 22.5C54.9821 21.6467 55.6088 20.9867 56.3955 20.52C57.1955 20.04 58.0821 19.8 59.0555 19.8C59.7755 19.8 60.4821 19.96 61.1755 20.28C61.8821 20.5867 62.4421 21 62.8555 21.52V16.2H65.1555V31H62.8555V29.34C62.4821 29.8733 61.9621 30.3133 61.2955 30.66C60.6421 31.0067 59.8888 31.18 59.0355 31.18C58.0755 31.18 57.1955 30.94 56.3955 30.46C55.6088 29.9667 54.9821 29.2867 54.5155 28.42C54.0621 27.54 53.8355 26.5467 53.8355 25.44ZM62.8555 25.48C62.8555 24.72 62.6955 24.06 62.3755 23.5C62.0688 22.94 61.6621 22.5133 61.1555 22.22C60.6488 21.9267 60.1021 21.78 59.5155 21.78C58.9288 21.78 58.3821 21.9267 57.8755 22.22C57.3688 22.5 56.9555 22.92 56.6355 23.48C56.3288 24.0267 56.1755 24.68 56.1755 25.44C56.1755 26.2 56.3288 26.8667 56.6355 27.44C56.9555 28.0133 57.3688 28.4533 57.8755 28.76C58.3955 29.0533 58.9421 29.2 59.5155 29.2C60.1021 29.2 60.6488 29.0533 61.1555 28.76C61.6621 28.4667 62.0688 28.04 62.3755 27.48C62.6955 26.9067 62.8555 26.24 62.8555 25.48ZM75.3655 21.84V27.94C75.3655 28.3533 75.4588 28.6533 75.6455 28.84C75.8455 29.0133 76.1788 29.1 76.6455 29.1H78.0455V31H76.2455C75.2188 31 74.4321 30.76 73.8855 30.28C73.3388 29.8 73.0655 29.02 73.0655 27.94V21.84H71.7655V19.98H73.0655V17.24H75.3655V19.98H78.0455V21.84H75.3655ZM84.6069 31.18C83.5669 31.18 82.6269 30.9467 81.7869 30.48C80.9469 30 80.2869 29.3333 79.8069 28.48C79.3269 27.6133 79.0869 26.6133 79.0869 25.48C79.0869 24.36 79.3335 23.3667 79.8269 22.5C80.3202 21.6333 80.9935 20.9667 81.8469 20.5C82.7002 20.0333 83.6535 19.8 84.7069 19.8C85.7602 19.8 86.7135 20.0333 87.5669 20.5C88.4202 20.9667 89.0935 21.6333 89.5869 22.5C90.0802 23.3667 90.3269 24.36 90.3269 25.48C90.3269 26.6 90.0735 27.5933 89.5669 28.46C89.0602 29.3267 88.3669 30 87.4869 30.48C86.6202 30.9467 85.6602 31.18 84.6069 31.18ZM84.6069 29.2C85.1935 29.2 85.7402 29.06 86.2469 28.78C86.7669 28.5 87.1869 28.08 87.5069 27.52C87.8269 26.96 87.9869 26.28 87.9869 25.48C87.9869 24.68 87.8335 24.0067 87.5269 23.46C87.2202 22.9 86.8135 22.48 86.3069 22.2C85.8002 21.92 85.2535 21.78 84.6669 21.78C84.0802 21.78 83.5335 21.92 83.0269 22.2C82.5335 22.48 82.1402 22.9 81.8469 23.46C81.5535 24.0067 81.4069 24.68 81.4069 25.48C81.4069 26.6667 81.7069 27.5867 82.3069 28.24C82.9202 28.88 83.6869 29.2 84.6069 29.2ZM105.516 28.16H99.6961L98.6961 31H96.3161L101.296 17.08H103.936L108.916 31H106.516L105.516 28.16ZM104.876 26.3L102.616 19.84L100.336 26.3H104.876ZM110.001 25.48C110.001 24.3467 110.228 23.3533 110.681 22.5C111.148 21.6333 111.788 20.9667 112.601 20.5C113.415 20.0333 114.348 19.8 115.401 19.8C116.735 19.8 117.835 20.12 118.701 20.76C119.581 21.3867 120.175 22.2867 120.481 23.46H118.021C117.821 22.9133 117.501 22.4867 117.061 22.18C116.621 21.8733 116.068 21.72 115.401 21.72C114.468 21.72 113.721 22.0533 113.161 22.72C112.615 23.3733 112.341 24.2933 112.341 25.48C112.341 26.6667 112.615 27.5933 113.161 28.26C113.721 28.9267 114.468 29.26 115.401 29.26C116.721 29.26 117.595 28.68 118.021 27.52H120.481C120.161 28.64 119.561 29.5333 118.681 30.2C117.801 30.8533 116.708 31.18 115.401 31.18C114.348 31.18 113.415 30.9467 112.601 30.48C111.788 30 111.148 29.3333 110.681 28.48C110.228 27.6133 110.001 26.6133 110.001 25.48ZM128.134 19.8C128.974 19.8 129.72 19.98 130.374 20.34C131.04 20.7 131.56 21.2333 131.934 21.94C132.32 22.6467 132.514 23.5 132.514 24.5V31H130.254V24.84C130.254 23.8533 130.007 23.1 129.514 22.58C129.02 22.0467 128.347 21.78 127.494 21.78C126.64 21.78 125.96 22.0467 125.454 22.58C124.96 23.1 124.714 23.8533 124.714 24.84V31H122.434V16.2H124.714V21.26C125.1 20.7933 125.587 20.4333 126.174 20.18C126.774 19.9267 127.427 19.8 128.134 19.8ZM136.262 18.52C135.849 18.52 135.502 18.38 135.222 18.1C134.942 17.82 134.802 17.4733 134.802 17.06C134.802 16.6467 134.942 16.3 135.222 16.02C135.502 15.74 135.849 15.6 136.262 15.6C136.662 15.6 137.002 15.74 137.282 16.02C137.562 16.3 137.702 16.6467 137.702 17.06C137.702 17.4733 137.562 17.82 137.282 18.1C137.002 18.38 136.662 18.52 136.262 18.52ZM137.382 19.98V31H135.102V19.98H137.382ZM150.155 25.22C150.155 25.6333 150.129 26.0067 150.075 26.34H141.655C141.722 27.22 142.049 27.9267 142.635 28.46C143.222 28.9933 143.942 29.26 144.795 29.26C146.022 29.26 146.889 28.7467 147.395 27.72H149.855C149.522 28.7333 148.915 29.5667 148.035 30.22C147.169 30.86 146.089 31.18 144.795 31.18C143.742 31.18 142.795 30.9467 141.955 30.48C141.129 30 140.475 29.3333 139.995 28.48C139.529 27.6133 139.295 26.6133 139.295 25.48C139.295 24.3467 139.522 23.3533 139.975 22.5C140.442 21.6333 141.089 20.9667 141.915 20.5C142.755 20.0333 143.715 19.8 144.795 19.8C145.835 19.8 146.762 20.0267 147.575 20.48C148.389 20.9333 149.022 21.5733 149.475 22.4C149.929 23.2133 150.155 24.1533 150.155 25.22ZM147.775 24.5C147.762 23.66 147.462 22.9867 146.875 22.48C146.289 21.9733 145.562 21.72 144.695 21.72C143.909 21.72 143.235 21.9733 142.675 22.48C142.115 22.9733 141.782 23.6467 141.675 24.5H147.775ZM156.339 28.96L159.459 19.98H161.879L157.679 31H154.959L150.779 19.98H153.219L156.339 28.96ZM173.383 25.22C173.383 25.6333 173.356 26.0067 173.303 26.34H164.883C164.949 27.22 165.276 27.9267 165.863 28.46C166.449 28.9933 167.169 29.26 168.023 29.26C169.249 29.26 170.116 28.7467 170.623 27.72H173.083C172.749 28.7333 172.143 29.5667 171.263 30.22C170.396 30.86 169.316 31.18 168.023 31.18C166.969 31.18 166.023 30.9467 165.183 30.48C164.356 30 163.703 29.3333 163.223 28.48C162.756 27.6133 162.523 26.6133 162.523 25.48C162.523 24.3467 162.749 23.3533 163.203 22.5C163.669 21.6333 164.316 20.9667 165.143 20.5C165.983 20.0333 166.943 19.8 168.023 19.8C169.063 19.8 169.989 20.0267 170.803 20.48C171.616 20.9333 172.249 21.5733 172.703 22.4C173.156 23.2133 173.383 24.1533 173.383 25.22ZM171.003 24.5C170.989 23.66 170.689 22.9867 170.103 22.48C169.516 21.9733 168.789 21.72 167.923 21.72C167.136 21.72 166.463 21.9733 165.903 22.48C165.343 22.9733 165.009 23.6467 164.903 24.5H171.003ZM188.646 19.8C189.513 19.8 190.286 19.98 190.966 20.34C191.66 20.7 192.2 21.2333 192.586 21.94C192.986 22.6467 193.186 23.5 193.186 24.5V31H190.926V24.84C190.926 23.8533 190.68 23.1 190.186 22.58C189.693 22.0467 189.02 21.78 188.166 21.78C187.313 21.78 186.633 22.0467 186.126 22.58C185.633 23.1 185.386 23.8533 185.386 24.84V31H183.126V24.84C183.126 23.8533 182.88 23.1 182.386 22.58C181.893 22.0467 181.22 21.78 180.366 21.78C179.513 21.78 178.833 22.0467 178.326 22.58C177.833 23.1 177.586 23.8533 177.586 24.84V31H175.306V19.98H177.586V21.24C177.96 20.7867 178.433 20.4333 179.006 20.18C179.58 19.9267 180.193 19.8 180.846 19.8C181.726 19.8 182.513 19.9867 183.206 20.36C183.9 20.7333 184.433 21.2733 184.806 21.98C185.14 21.3133 185.66 20.7867 186.366 20.4C187.073 20 187.833 19.8 188.646 19.8ZM205.867 25.22C205.867 25.6333 205.841 26.0067 205.787 26.34H197.367C197.434 27.22 197.761 27.9267 198.347 28.46C198.934 28.9933 199.654 29.26 200.507 29.26C201.734 29.26 202.601 28.7467 203.107 27.72H205.567C205.234 28.7333 204.627 29.5667 203.747 30.22C202.881 30.86 201.801 31.18 200.507 31.18C199.454 31.18 198.507 30.9467 197.667 30.48C196.841 30 196.187 29.3333 195.707 28.48C195.241 27.6133 195.007 26.6133 195.007 25.48C195.007 24.3467 195.234 23.3533 195.687 22.5C196.154 21.6333 196.801 20.9667 197.627 20.5C198.467 20.0333 199.427 19.8 200.507 19.8C201.547 19.8 202.474 20.0267 203.287 20.48C204.101 20.9333 204.734 21.5733 205.187 22.4C205.641 23.2133 205.867 24.1533 205.867 25.22ZM203.487 24.5C203.474 23.66 203.174 22.9867 202.587 22.48C202.001 21.9733 201.274 21.72 200.407 21.72C199.621 21.72 198.947 21.9733 198.387 22.48C197.827 22.9733 197.494 23.6467 197.387 24.5H203.487ZM213.351 19.8C214.218 19.8 214.991 19.98 215.671 20.34C216.365 20.7 216.905 21.2333 217.291 21.94C217.678 22.6467 217.871 23.5 217.871 24.5V31H215.611V24.84C215.611 23.8533 215.365 23.1 214.871 22.58C214.378 22.0467 213.705 21.78 212.851 21.78C211.998 21.78 211.318 22.0467 210.811 22.58C210.318 23.1 210.071 23.8533 210.071 24.84V31H207.791V19.98H210.071V21.24C210.445 20.7867 210.918 20.4333 211.491 20.18C212.078 19.9267 212.698 19.8 213.351 19.8ZM223.12 21.84V27.94C223.12 28.3533 223.213 28.6533 223.4 28.84C223.6 29.0133 223.933 29.1 224.4 29.1H225.8V31H224C222.973 31 222.186 30.76 221.64 30.28C221.093 29.8 220.82 29.02 220.82 27.94V21.84H219.52V19.98H220.82V17.24H223.12V19.98H225.8V21.84H223.12ZM231.581 31.18C230.714 31.18 229.934 31.0267 229.241 30.72C228.561 30.4 228.021 29.9733 227.621 29.44C227.221 28.8933 227.008 28.2867 226.981 27.62H229.341C229.381 28.0867 229.601 28.48 230.001 28.8C230.414 29.1067 230.928 29.26 231.541 29.26C232.181 29.26 232.674 29.14 233.021 28.9C233.381 28.6467 233.561 28.3267 233.561 27.94C233.561 27.5267 233.361 27.22 232.961 27.02C232.574 26.82 231.954 26.6 231.101 26.36C230.274 26.1333 229.601 25.9133 229.081 25.7C228.561 25.4867 228.108 25.16 227.721 24.72C227.348 24.28 227.161 23.7 227.161 22.98C227.161 22.3933 227.334 21.86 227.681 21.38C228.028 20.8867 228.521 20.5 229.161 20.22C229.814 19.94 230.561 19.8 231.401 19.8C232.654 19.8 233.661 20.12 234.421 20.76C235.194 21.3867 235.608 22.2467 235.661 23.34H233.381C233.341 22.8467 233.141 22.4533 232.781 22.16C232.421 21.8667 231.934 21.72 231.321 21.72C230.721 21.72 230.261 21.8333 229.941 22.06C229.621 22.2867 229.461 22.5867 229.461 22.96C229.461 23.2533 229.568 23.5 229.781 23.7C229.994 23.9 230.254 24.06 230.561 24.18C230.868 24.2867 231.321 24.4267 231.921 24.6C232.721 24.8133 233.374 25.0333 233.881 25.26C234.401 25.4733 234.848 25.7933 235.221 26.22C235.594 26.6467 235.788 27.2133 235.801 27.92C235.801 28.5467 235.628 29.1067 235.281 29.6C234.934 30.0933 234.441 30.48 233.801 30.76C233.174 31.04 232.434 31.18 231.581 31.18Z" fill="#1F1F1F"/>
<defs>
<filter id="filter0_d_113_5186" x="0" y="0" width="257" height="51" filterUnits="userSpaceOnUse" color-interpolation-filters="sRGB">
<feFlood flood-opacity="0" result="BackgroundImageFix"/>
<feColorMatrix in="SourceAlpha" type="matrix" values="0 0 0 0 0 0 0 0 0 0 0 0 0 0 0 0 0 0 127 0" result="hardAlpha"/>
<feOffset dy="3"/>
<feGaussianBlur stdDeviation="0.5"/>
<feComposite in2="hardAlpha" operator="out"/>
<feColorMatrix type="matrix" values="0 0 0 0 0.595833 0 0 0 0 0.572314 0 0 0 0 0 0 0 0 1 0"/>
<feBlend mode="normal" in2="BackgroundImageFix" result="effect1_dropShadow_113_5186"/>
<feBlend mode="normal" in="SourceGraphic" in2="effect1_dropShadow_113_5186" result="shape"/>
</filter>
</defs>
</svg>
