<svg width="48" height="44" viewBox="0 0 48 44" fill="none" xmlns="http://www.w3.org/2000/svg">
<path d="M43.23 6.78827C39.9382 2.41154 35.4327 0 30.5455 0H17.4545C12.5673 0 8.06182 2.41154 4.77 6.78827C1.69364 10.8773 0 16.2885 0 22C0 27.7115 1.69364 33.1227 4.77 37.2117C8.06182 41.5885 12.5673 44 17.4545 44H30.5455C35.4327 44 39.9382 41.5885 43.23 37.2117C46.3064 33.1227 48 27.7115 48 22C48 16.2885 46.3064 10.8773 43.23 6.78827ZM43.5791 20.3077H34.8518C34.6814 16.835 33.7899 13.4064 32.2118 10.1538H40.5545C42.2236 12.9842 43.3255 16.5 43.5791 20.3077ZM37.9609 6.76923H30.1255C29.2141 5.54298 28.1153 4.40655 26.8527 3.38462H30.5455C33.2727 3.38462 35.8364 4.65385 37.9609 6.76923ZM4.36364 22C4.36364 11.9096 10.3636 3.38462 17.4545 3.38462C24.5455 3.38462 30.5455 11.9096 30.5455 22C30.5455 32.0904 24.5455 40.6154 17.4545 40.6154C10.3636 40.6154 4.36364 32.0904 4.36364 22ZM30.5455 40.6154H26.8609C28.1235 39.5934 29.2223 38.457 30.1336 37.2308H37.9691C35.8364 39.3462 33.2727 40.6154 30.5455 40.6154ZM40.5545 33.8462H32.2145C33.7926 30.5936 34.6841 27.165 34.8545 23.6923H43.5818C43.3255 27.5 42.2236 31.0158 40.5545 33.8462Z" fill="#2B2B2B"/>
</svg>
