<svg width="38" height="38" viewBox="0 0 38 38" fill="none" xmlns="http://www.w3.org/2000/svg">
<path d="M19 38C8.5063 38 0 29.4937 0 19C0 8.5063 8.5063 0 19 0C29.4937 0 38 8.5063 38 19C38 29.4937 29.4937 38 19 38ZM14.649 33.5673C12.7745 29.5912 11.6886 25.2894 11.4513 20.9H3.9178C4.28751 23.8239 5.49845 26.5775 7.40348 28.8262C9.30851 31.075 11.8256 32.722 14.649 33.5673ZM15.257 20.9C15.5439 25.5341 16.8682 29.887 19 33.7288C21.1894 29.7854 22.4683 25.402 22.743 20.9H15.257ZM34.0822 20.9H26.5487C26.3114 25.2894 25.2255 29.5912 23.351 33.5673C26.1744 32.722 28.6915 31.075 30.5965 28.8262C32.5015 26.5775 33.7125 23.8239 34.0822 20.9ZM3.9178 17.1H11.4513C11.6886 12.7106 12.7745 8.4088 14.649 4.4327C11.8256 5.27797 9.30851 6.92503 7.40348 9.17376C5.49845 11.4225 4.28751 14.1761 3.9178 17.1ZM15.2589 17.1H22.7411C22.467 12.5981 21.1887 8.21471 19 4.2712C16.8106 8.21455 15.5317 12.598 15.257 17.1H15.2589ZM23.351 4.4327C25.2255 8.4088 26.3114 12.7106 26.5487 17.1H34.0822C33.7125 14.1761 32.5015 11.4225 30.5965 9.17376C28.6915 6.92503 26.1744 5.27797 23.351 4.4327Z" fill="#9C27B0"/>
</svg>
