<svg width="35" height="36" viewBox="0 0 35 36" fill="none" xmlns="http://www.w3.org/2000/svg">
<path d="M26 34V4.4C26 3.76348 25.7471 3.15303 25.2971 2.70294C24.847 2.25286 24.2365 2 23.6 2H4.4C3.76348 2 3.15303 2.25286 2.70294 2.70294C2.25286 3.15303 2 3.76348 2 4.4V31.6C2 32.2365 2.25286 32.847 2.70294 33.2971C3.15303 33.7471 3.76348 34 4.4 34H26ZM26 34H30C30.6365 34 31.247 33.7471 31.6971 33.2971C32.1471 32.847 32.4 32.2365 32.4 31.6V18C32.4 17.5757 32.2314 17.1687 31.9314 16.8686C31.6313 16.5686 31.2243 16.4 30.8 16.4H27.6C27.1757 16.4 26.7687 16.5686 26.4686 16.8686C26.1686 17.1687 26 17.5757 26 18V34Z" stroke="#FFC300" stroke-width="4" stroke-linejoin="round"/>
<path d="M6.80005 8.40002H13.2M6.80005 14H16.4" stroke="#FFC300" stroke-width="4" stroke-linecap="round" stroke-linejoin="round"/>
</svg>
