<svg width="39" height="31" viewBox="0 0 39 31" fill="none" xmlns="http://www.w3.org/2000/svg">
<path d="M38.61 27.3453H0.39C0.1755 27.3453 0 27.5281 0 27.7514V30.5939C0 30.8173 0.1755 31 0.39 31H38.61C38.8245 31 39 30.8173 39 30.5939V27.7514C39 27.5281 38.8245 27.3453 38.61 27.3453ZM2.61787 20.9902L4.55325 22.9952C4.70437 23.1526 4.953 23.1526 5.10412 22.9952L16.5457 11.1226L21.3037 16.0615C21.5969 16.3639 21.9928 16.5336 22.4055 16.5336C22.8182 16.5336 23.2141 16.3639 23.5072 16.0615L36.387 2.70162C36.5381 2.54427 36.5381 2.28539 36.387 2.12804L34.4516 0.117965C34.3783 0.0423934 34.2793 0 34.1762 0C34.073 0 33.974 0.0423934 33.9007 0.117965L22.4104 12.0464L17.6475 7.10754C17.3544 6.80513 16.9584 6.63547 16.5457 6.63547C16.1331 6.63547 15.7371 6.80513 15.444 7.10754L2.61787 20.4167C2.58141 20.4541 2.55246 20.4988 2.53269 20.548C2.51293 20.5973 2.50276 20.6501 2.50276 20.7035C2.50276 20.7568 2.51293 20.8096 2.53269 20.8589C2.55246 20.9081 2.58141 20.9528 2.61787 20.9902Z" fill="#8BC34A"/>
</svg>
