<svg width="46" height="30" viewBox="0 0 46 30" fill="none" xmlns="http://www.w3.org/2000/svg">
<path d="M22.4773 23.5714H23.9932V21.8571C24.9689 21.7143 25.7969 21.3036 26.4772 20.625C27.156 19.9464 27.4955 19.0714 27.4955 18C27.4955 17.0714 27.147 16.2943 26.45 15.6686C25.753 15.0443 24.9515 14.5357 24.0455 14.1429V10.1786C24.3939 10.2857 24.6818 10.4643 24.909 10.7143C25.1348 10.9643 25.3 11.2679 25.4045 11.625L27.2864 10.8214C27.0424 10.0714 26.6242 9.47286 26.0318 9.02571C25.4394 8.58 24.7773 8.28571 24.0455 8.14286V6.42857H22.4773V8.08928C21.5015 8.19643 20.6735 8.56214 19.9933 9.18643C19.3144 9.81214 18.975 10.6429 18.975 11.6786C18.975 12.6429 19.3325 13.4464 20.0476 14.0893C20.7613 14.7321 21.5712 15.25 22.4773 15.6429V19.875C21.9197 19.6964 21.4492 19.3929 21.0659 18.9643C20.6826 18.5357 20.4212 18.0357 20.2818 17.4643L18.4523 18.2679C18.7311 19.2679 19.2189 20.0893 19.9159 20.7321C20.6129 21.375 21.4667 21.7679 22.4773 21.9107V23.5714ZM24.0455 19.8214V16.2857C24.4288 16.4643 24.7689 16.6786 25.0658 16.9286C25.3613 17.1786 25.5091 17.5536 25.5091 18.0536C25.5091 18.625 25.3697 19.0264 25.0909 19.2579C24.8121 19.4907 24.4636 19.6786 24.0455 19.8214ZM22.4773 13.4464C22.0939 13.2679 21.7455 13.0536 21.4318 12.8036C21.1182 12.5536 20.9614 12.1786 20.9614 11.6786C20.9614 11.1786 21.1182 10.8129 21.4318 10.5814C21.7455 10.3486 22.0939 10.1964 22.4773 10.125V13.4464ZM14.6364 30C10.5591 30 7.10073 28.5443 4.26127 25.6329C1.42042 22.7229 0 19.1786 0 15C0 10.8214 1.42042 7.27643 4.26127 4.365C7.10073 1.455 10.5591 0 14.6364 0H31.3636C35.4409 0 38.8993 1.455 41.7387 4.365C44.5796 7.27643 46 10.8214 46 15C46 19.1786 44.5796 22.7229 41.7387 25.6329C38.8993 28.5443 35.4409 30 31.3636 30H14.6364ZM14.6364 25.7143H31.3636C34.2561 25.7143 36.7219 24.6693 38.7613 22.5793C40.7992 20.4907 41.8182 17.9643 41.8182 15C41.8182 12.0357 40.7992 9.50857 38.7613 7.41857C36.7219 5.33 34.2561 4.28571 31.3636 4.28571H14.6364C11.7439 4.28571 9.27876 5.33 7.24082 7.41857C5.20148 9.50857 4.18182 12.0357 4.18182 15C4.18182 17.9643 5.20148 20.4907 7.24082 22.5793C9.27876 24.6693 11.7439 25.7143 14.6364 25.7143Z" fill="#F44336"/>
</svg>
