<svg width="233" height="185" viewBox="0 0 233 185" fill="none" xmlns="http://www.w3.org/2000/svg">
<path d="M46 46.5L54.5 39H190.5L204 67L214 68.5L219.5 71V111L215.5 116.5L199.5 119.5L182 171.5H166L158.5 156H90L83.5 171.5H68.5L55.5 134.5L46 123L38.5 106.5L35.5 87L36.5 73L39.5 59.5L46 46.5Z" fill="#FFF967"/>
<path d="M180.387 80.9375C180.387 83.2243 179.726 85.4598 178.487 87.3613C177.248 89.2627 175.487 90.7447 173.427 91.6199C171.367 92.495 169.1 92.724 166.913 92.2778C164.726 91.8317 162.717 90.7305 161.141 89.1134C159.564 87.4964 158.49 85.4361 158.055 83.1932C157.62 80.9503 157.843 78.6255 158.697 76.5127C159.55 74.4 160.995 72.5941 162.849 71.3236C164.703 70.0531 166.883 69.375 169.113 69.375C172.103 69.375 174.971 70.5932 177.085 72.7616C179.199 74.93 180.387 77.8709 180.387 80.9375ZM142.806 30.8333H105.226C103.232 30.8333 101.321 31.6455 99.911 33.0911C98.5015 34.5366 97.7096 36.4973 97.7096 38.5417C97.7096 40.586 98.5015 42.5467 99.911 43.9923C101.321 45.4379 103.232 46.25 105.226 46.25H142.806C144.8 46.25 146.712 45.4379 148.121 43.9923C149.531 42.5467 150.322 40.586 150.322 38.5417C150.322 36.4973 149.531 34.5366 148.121 33.0911C146.712 31.6455 144.8 30.8333 142.806 30.8333ZM233 77.0833V107.917C233 114.05 230.624 119.932 226.396 124.269C222.167 128.605 216.432 131.042 210.451 131.042H208.234L193.005 174.767C191.962 177.762 190.042 180.353 187.507 182.185C184.972 184.017 181.947 185 178.846 185H166.896C163.795 185 160.77 184.017 158.235 182.185C155.7 180.353 153.78 177.762 152.737 174.767L150.933 169.583H97.0989L95.2951 174.767C94.2524 177.762 92.3321 180.353 89.7973 182.185C87.2626 184.017 84.2375 185 81.1366 185H69.1859C66.085 185 63.0599 184.017 60.5252 182.185C57.9904 180.353 56.0701 177.762 55.0274 174.767L43.2177 140.889C31.9828 127.848 24.948 111.568 23.0745 94.2729C20.6489 95.5795 18.6176 97.5412 17.2002 99.9459C15.7827 102.351 15.0331 105.107 15.0322 107.917C15.0322 109.961 14.2404 111.922 12.8308 113.367C11.4213 114.813 9.50952 115.625 7.51612 115.625C5.52272 115.625 3.61097 114.813 2.20142 113.367C0.791875 111.922 0 109.961 0 107.917C0.0114844 101.042 2.26256 94.3693 6.3956 88.9574C10.5286 83.5455 16.3066 79.7053 22.8114 78.0469C24.4905 56.8039 33.8979 36.9855 49.1656 22.5269C64.4333 8.06827 84.4446 0.0270618 105.226 0H202.935C204.929 0 206.841 0.812127 208.25 2.25772C209.66 3.70331 210.451 5.66396 210.451 7.70833C210.451 9.75271 209.66 11.7134 208.25 13.1589C206.841 14.6045 204.929 15.4167 202.935 15.4167H182.839C195.313 24.392 205.123 36.7305 211.184 51.0677C211.588 52.0312 211.983 52.9948 212.359 53.9583C218.002 54.4496 223.259 57.1012 227.084 61.3859C230.908 65.6706 233.02 71.2745 233 77.0833ZM217.968 77.0833C217.968 75.039 217.176 73.0783 215.766 71.6327C214.357 70.1871 212.445 69.375 210.451 69.375H207.013C205.412 69.3767 203.853 68.8543 202.561 67.8837C201.27 66.9132 200.315 65.5453 199.835 63.9792C195.529 49.8858 186.944 37.5726 175.332 28.8364C163.721 20.1002 149.691 15.3982 135.29 15.4167H105.226C92.098 15.416 79.2538 19.3328 68.2592 26.6895C57.2647 34.0463 48.5949 44.525 43.3072 56.848C38.0195 69.1709 36.3423 82.8056 38.4801 96.0892C40.6179 109.373 46.4784 121.732 55.3469 131.658C56.025 132.415 56.5489 133.303 56.8877 134.27L69.1859 169.583H81.1366L84.7255 159.283C85.2466 157.786 86.206 156.491 87.4725 155.575C88.7389 154.66 90.2504 154.167 91.8001 154.167H156.232C157.782 154.167 159.293 154.66 160.56 155.575C161.826 156.491 162.786 157.786 163.307 159.283L166.896 169.583H178.846L195.861 120.741C196.382 119.245 197.341 117.95 198.608 117.034C199.874 116.118 201.386 115.626 202.935 115.625H210.451C212.445 115.625 214.357 114.813 215.766 113.367C217.176 111.922 217.968 109.961 217.968 107.917V77.0833Z" fill="#2B2B2B"/>
</svg>
