<svg width="51" height="30" viewBox="0 0 51 30" fill="none" xmlns="http://www.w3.org/2000/svg">
<path d="M25.5 6.66667C23.8189 6.66667 22.1755 7.15541 20.7777 8.07109C19.3798 8.98677 18.2904 10.2883 17.647 11.811C17.0037 13.3337 16.8353 15.0092 17.1633 16.6258C17.4913 18.2423 18.3008 19.7271 19.4896 20.8926C20.6783 22.058 22.1929 22.8517 23.8417 23.1732C25.4906 23.4948 27.1996 23.3297 28.7528 22.699C30.306 22.0683 31.6335 21.0002 32.5675 19.6298C33.5015 18.2593 34 16.6482 34 15C34 12.7899 33.1045 10.6702 31.5104 9.10744C29.9163 7.54464 27.7543 6.66667 25.5 6.66667ZM25.5 20C24.4913 20 23.5053 19.7068 22.6666 19.1573C21.8279 18.6079 21.1742 17.827 20.7882 16.9134C20.4022 15.9998 20.3012 14.9945 20.498 14.0245C20.6948 13.0546 21.1805 12.1637 21.8938 11.4645C22.607 10.7652 23.5157 10.289 24.505 10.0961C25.4943 9.90315 26.5198 10.0022 27.4517 10.3806C28.3836 10.759 29.1801 11.3999 29.7405 12.2221C30.3009 13.0444 30.6 14.0111 30.6 15C30.6 16.3261 30.0627 17.5979 29.1062 18.5355C28.1498 19.4732 26.8526 20 25.5 20ZM49.3 0H1.7C1.24913 0 0.81673 0.175595 0.497918 0.488156C0.179107 0.800716 0 1.22464 0 1.66667V28.3333C0 28.7754 0.179107 29.1993 0.497918 29.5118C0.81673 29.8244 1.24913 30 1.7 30H49.3C49.7509 30 50.1833 29.8244 50.5021 29.5118C50.8209 29.1993 51 28.7754 51 28.3333V1.66667C51 1.22464 50.8209 0.800716 50.5021 0.488156C50.1833 0.175595 49.7509 0 49.3 0ZM39.4506 26.6667H11.5494C10.9786 24.7742 9.93397 23.0518 8.51059 21.6563C7.08721 20.2608 5.33034 19.2367 3.4 18.6771V11.3229C5.33034 10.7633 7.08721 9.73918 8.51059 8.34372C9.93397 6.94825 10.9786 5.22583 11.5494 3.33333H39.4506C40.0214 5.22583 41.066 6.94825 42.4894 8.34372C43.9128 9.73918 45.6697 10.7633 47.6 11.3229V18.6771C45.6697 19.2367 43.9128 20.2608 42.4894 21.6563C41.066 23.0518 40.0214 24.7742 39.4506 26.6667ZM47.6 7.78542C45.5609 6.92582 43.9357 5.33242 43.0589 3.33333H47.6V7.78542ZM7.94112 3.33333C7.06433 5.33242 5.43907 6.92582 3.4 7.78542V3.33333H7.94112ZM3.4 22.2146C5.43907 23.0742 7.06433 24.6676 7.94112 26.6667H3.4V22.2146ZM43.0589 26.6667C43.9357 24.6676 45.5609 23.0742 47.6 22.2146V26.6667H43.0589Z" fill="#795548"/>
</svg>
