<svg width="263" height="218" viewBox="0 0 263 218" fill="none" xmlns="http://www.w3.org/2000/svg">
<path d="M45.5543 51.4095L55.7174 42.194L89.3415 15.0597L134.747 3L220.805 36.1642L234.467 76.5983L246.424 78.4414L253 81.5132V130.662L248.217 137.42L229.087 141.106L208.163 205H189.033L180.065 185.955H98.163L90.3913 205H72.4565L56.913 159.537L45.5543 145.407L36.587 125.133L33 101.173L34.1957 83.9707L37.7826 67.3829L45.5543 51.4095Z" fill="#FFF967"/>
<path d="M203.613 95.375C203.613 98.0698 202.866 100.704 201.468 102.945C200.07 105.185 198.082 106.932 195.757 107.963C193.432 108.994 190.873 109.264 188.404 108.738C185.936 108.212 183.668 106.915 181.888 105.009C180.109 103.104 178.897 100.676 178.406 98.0331C177.915 95.3901 178.167 92.6506 179.13 90.1609C180.093 87.6713 181.724 85.5434 183.817 84.0462C185.91 82.5491 188.37 81.75 190.887 81.75C194.262 81.75 197.499 83.1855 199.885 85.7407C202.272 88.2958 203.613 91.7614 203.613 95.375ZM161.193 36.3333H118.774C116.524 36.3333 114.366 37.2903 112.775 38.9938C111.184 40.6972 110.29 43.0076 110.29 45.4167C110.29 47.8257 111.184 50.1361 112.775 51.8396C114.366 53.543 116.524 54.5 118.774 54.5H161.193C163.444 54.5 165.601 53.543 167.192 51.8396C168.783 50.1361 169.677 47.8257 169.677 45.4167C169.677 43.0076 168.783 40.6972 167.192 38.9938C165.601 37.2903 163.444 36.3333 161.193 36.3333ZM263 90.8333V127.167C263 134.394 260.318 141.325 255.545 146.435C250.772 151.546 244.298 154.417 237.548 154.417H235.046L217.855 205.942C216.678 209.471 214.511 212.524 211.649 214.683C208.788 216.842 205.374 218 201.874 218H188.384C184.884 218 181.469 216.842 178.608 214.683C175.747 212.524 173.58 209.471 172.403 205.942L170.367 199.833H109.601L107.565 205.942C106.388 209.471 104.22 212.524 101.359 214.683C98.4981 216.842 95.0835 218 91.5833 218H78.094C74.5938 218 71.1792 216.842 68.3181 214.683C65.457 212.524 63.2894 209.471 62.1125 205.942L48.7822 166.021C36.1008 150.654 28.1602 131.47 26.0455 111.089C23.3075 112.629 21.0147 114.94 19.4148 117.774C17.8149 120.608 16.9687 123.856 16.9677 127.167C16.9677 129.576 16.0739 131.886 14.4829 133.59C12.8918 135.293 10.7339 136.25 8.48387 136.25C6.2338 136.25 4.0759 135.293 2.48487 133.59C0.893833 131.886 0 129.576 0 127.167C0.0129631 119.066 2.55388 111.203 7.21907 104.825C11.8843 98.4482 18.4061 93.923 25.7485 91.9688C27.6438 66.9365 38.2625 43.5829 55.4959 26.5452C72.7294 9.50747 95.3173 0.031889 118.774 0H229.064C231.314 0 233.472 0.956993 235.063 2.66045C236.654 4.3639 237.548 6.67428 237.548 9.08333C237.548 11.4924 236.654 13.8028 235.063 15.5062C233.472 17.2097 231.314 18.1667 229.064 18.1667H206.381C220.46 28.743 231.533 43.2824 238.375 60.1771C238.831 61.3125 239.277 62.4479 239.701 63.5833C246.071 64.1623 252.005 67.2869 256.322 72.3359C260.639 77.3848 263.023 83.9883 263 90.8333ZM246.032 90.8333C246.032 88.4243 245.138 86.1139 243.547 84.4104C241.956 82.707 239.798 81.75 237.548 81.75H233.667C231.86 81.7521 230.1 81.1364 228.642 79.9927C227.185 78.8491 226.107 77.2371 225.565 75.3917C220.704 58.7843 211.014 44.2747 197.907 33.9802C184.801 23.6856 168.965 18.1449 152.71 18.1667H118.774C103.956 18.1658 89.4581 22.7814 77.048 31.4504C64.6378 40.1194 54.8518 52.4673 48.8833 66.9884C42.9147 81.5095 41.0215 97.5763 43.4346 113.229C45.8477 128.883 52.4627 143.446 62.4731 155.143C63.2386 156.035 63.8299 157.081 64.2123 158.22L78.094 199.833H91.5833L95.6344 187.696C96.2225 185.932 97.3055 184.406 98.735 183.327C100.164 182.247 101.871 181.668 103.62 181.667H176.348C178.097 181.668 179.803 182.247 181.233 183.327C182.662 184.406 183.745 185.932 184.333 187.696L188.384 199.833H201.874L221.079 142.279C221.667 140.515 222.75 138.989 224.18 137.91C225.609 136.831 227.315 136.251 229.064 136.25H237.548C239.798 136.25 241.956 135.293 243.547 133.59C245.138 131.886 246.032 129.576 246.032 127.167V90.8333Z" fill="#2B2B2B"/>
</svg>
