<svg width="255" height="47" viewBox="0 0 255 47" fill="none" xmlns="http://www.w3.org/2000/svg">
<rect x="1" y="1" width="253" height="45" rx="7" fill="#9FDFFC" stroke="#FFF967" stroke-width="2"/>
<path d="M39.8763 24.02C39.8763 22.66 40.1897 21.44 40.8163 20.36C41.4563 19.28 42.3163 18.44 43.3963 17.84C44.4897 17.2267 45.683 16.92 46.9763 16.92C48.4563 16.92 49.7697 17.2867 50.9163 18.02C52.0763 18.74 52.9163 19.7667 53.4363 21.1H50.6963C50.3363 20.3667 49.8363 19.82 49.1963 19.46C48.5563 19.1 47.8163 18.92 46.9763 18.92C46.0563 18.92 45.2363 19.1267 44.5163 19.54C43.7963 19.9533 43.2297 20.5467 42.8163 21.32C42.4163 22.0933 42.2163 22.9933 42.2163 24.02C42.2163 25.0467 42.4163 25.9467 42.8163 26.72C43.2297 27.4933 43.7963 28.0933 44.5163 28.52C45.2363 28.9333 46.0563 29.14 46.9763 29.14C47.8163 29.14 48.5563 28.96 49.1963 28.6C49.8363 28.24 50.3363 27.6933 50.6963 26.96H53.4363C52.9163 28.2933 52.0763 29.32 50.9163 30.04C49.7697 30.76 48.4563 31.12 46.9763 31.12C45.6697 31.12 44.4763 30.82 43.3963 30.22C42.3163 29.6067 41.4563 28.76 40.8163 27.68C40.1897 26.6 39.8763 25.38 39.8763 24.02ZM61.4851 19.8C62.3251 19.8 63.0717 19.98 63.7251 20.34C64.3917 20.7 64.9117 21.2333 65.2851 21.94C65.6717 22.6467 65.8651 23.5 65.8651 24.5V31H63.6051V24.84C63.6051 23.8533 63.3584 23.1 62.8651 22.58C62.3717 22.0467 61.6984 21.78 60.8451 21.78C59.9917 21.78 59.3117 22.0467 58.8051 22.58C58.3117 23.1 58.0651 23.8533 58.0651 24.84V31H55.7851V16.2H58.0651V21.26C58.4517 20.7933 58.9384 20.4333 59.5251 20.18C60.1251 19.9267 60.7784 19.8 61.4851 19.8ZM67.6934 25.44C67.6934 24.3333 67.92 23.3533 68.3734 22.5C68.84 21.6467 69.4667 20.9867 70.2534 20.52C71.0534 20.04 71.9334 19.8 72.8934 19.8C73.76 19.8 74.5134 19.9733 75.1534 20.32C75.8067 20.6533 76.3267 21.0733 76.7134 21.58V19.98H79.0134V31H76.7134V29.36C76.3267 29.88 75.8 30.3133 75.1334 30.66C74.4667 31.0067 73.7067 31.18 72.8534 31.18C71.9067 31.18 71.04 30.94 70.2534 30.46C69.4667 29.9667 68.84 29.2867 68.3734 28.42C67.92 27.54 67.6934 26.5467 67.6934 25.44ZM76.7134 25.48C76.7134 24.72 76.5534 24.06 76.2334 23.5C75.9267 22.94 75.52 22.5133 75.0134 22.22C74.5067 21.9267 73.96 21.78 73.3734 21.78C72.7867 21.78 72.24 21.9267 71.7334 22.22C71.2267 22.5 70.8134 22.92 70.4934 23.48C70.1867 24.0267 70.0334 24.68 70.0334 25.44C70.0334 26.2 70.1867 26.8667 70.4934 27.44C70.8134 28.0133 71.2267 28.4533 71.7334 28.76C72.2534 29.0533 72.8 29.2 73.3734 29.2C73.96 29.2 74.5067 29.0533 75.0134 28.76C75.52 28.4667 75.9267 28.04 76.2334 27.48C76.5534 26.9067 76.7134 26.24 76.7134 25.48ZM87.248 19.8C88.1147 19.8 88.888 19.98 89.568 20.34C90.2614 20.7 90.8014 21.2333 91.188 21.94C91.5747 22.6467 91.7681 23.5 91.7681 24.5V31H89.508V24.84C89.508 23.8533 89.2614 23.1 88.768 22.58C88.2747 22.0467 87.6014 21.78 86.748 21.78C85.8947 21.78 85.2147 22.0467 84.708 22.58C84.2147 23.1 83.968 23.8533 83.968 24.84V31H81.688V19.98H83.968V21.24C84.3414 20.7867 84.8147 20.4333 85.388 20.18C85.9747 19.9267 86.5947 19.8 87.248 19.8ZM98.7963 19.8C99.6497 19.8 100.403 19.9733 101.056 20.32C101.723 20.6533 102.243 21.0733 102.616 21.58V19.98H104.916V31.18C104.916 32.1933 104.703 33.0933 104.276 33.88C103.85 34.68 103.23 35.3067 102.416 35.76C101.616 36.2133 100.656 36.44 99.5363 36.44C98.043 36.44 96.803 36.0867 95.8163 35.38C94.8297 34.6867 94.2697 33.74 94.1363 32.54H96.3963C96.5697 33.1133 96.9363 33.5733 97.4963 33.92C98.0697 34.28 98.7497 34.46 99.5363 34.46C100.456 34.46 101.196 34.18 101.756 33.62C102.33 33.06 102.616 32.2467 102.616 31.18V29.34C102.23 29.86 101.703 30.3 101.036 30.66C100.383 31.0067 99.6363 31.18 98.7963 31.18C97.8363 31.18 96.9563 30.94 96.1563 30.46C95.3697 29.9667 94.743 29.2867 94.2763 28.42C93.823 27.54 93.5963 26.5467 93.5963 25.44C93.5963 24.3333 93.823 23.3533 94.2763 22.5C94.743 21.6467 95.3697 20.9867 96.1563 20.52C96.9563 20.04 97.8363 19.8 98.7963 19.8ZM102.616 25.48C102.616 24.72 102.456 24.06 102.136 23.5C101.83 22.94 101.423 22.5133 100.916 22.22C100.41 21.9267 99.863 21.78 99.2763 21.78C98.6897 21.78 98.143 21.9267 97.6363 22.22C97.1297 22.5 96.7163 22.92 96.3963 23.48C96.0897 24.0267 95.9363 24.68 95.9363 25.44C95.9363 26.2 96.0897 26.8667 96.3963 27.44C96.7163 28.0133 97.1297 28.4533 97.6363 28.76C98.1563 29.0533 98.703 29.2 99.2763 29.2C99.863 29.2 100.41 29.0533 100.916 28.76C101.423 28.4667 101.83 28.04 102.136 27.48C102.456 26.9067 102.616 26.24 102.616 25.48ZM117.691 25.22C117.691 25.6333 117.664 26.0067 117.611 26.34H109.191C109.258 27.22 109.584 27.9267 110.171 28.46C110.758 28.9933 111.478 29.26 112.331 29.26C113.558 29.26 114.424 28.7467 114.931 27.72H117.391C117.058 28.7333 116.451 29.5667 115.571 30.22C114.704 30.86 113.624 31.18 112.331 31.18C111.278 31.18 110.331 30.9467 109.491 30.48C108.664 30 108.011 29.3333 107.531 28.48C107.064 27.6133 106.831 26.6133 106.831 25.48C106.831 24.3467 107.058 23.3533 107.511 22.5C107.978 21.6333 108.624 20.9667 109.451 20.5C110.291 20.0333 111.251 19.8 112.331 19.8C113.371 19.8 114.298 20.0267 115.111 20.48C115.924 20.9333 116.558 21.5733 117.011 22.4C117.464 23.2133 117.691 24.1533 117.691 25.22ZM115.311 24.5C115.298 23.66 114.998 22.9867 114.411 22.48C113.824 21.9733 113.098 21.72 112.231 21.72C111.444 21.72 110.771 21.9733 110.211 22.48C109.651 22.9733 109.318 23.6467 109.211 24.5H115.311ZM123.73 24.02C123.73 22.66 124.043 21.44 124.67 20.36C125.31 19.28 126.17 18.44 127.25 17.84C128.343 17.2267 129.537 16.92 130.83 16.92C132.31 16.92 133.623 17.2867 134.77 18.02C135.93 18.74 136.77 19.7667 137.29 21.1H134.55C134.19 20.3667 133.69 19.82 133.05 19.46C132.41 19.1 131.67 18.92 130.83 18.92C129.91 18.92 129.09 19.1267 128.37 19.54C127.65 19.9533 127.083 20.5467 126.67 21.32C126.27 22.0933 126.07 22.9933 126.07 24.02C126.07 25.0467 126.27 25.9467 126.67 26.72C127.083 27.4933 127.65 28.0933 128.37 28.52C129.09 28.9333 129.91 29.14 130.83 29.14C131.67 29.14 132.41 28.96 133.05 28.6C133.69 28.24 134.19 27.6933 134.55 26.96H137.29C136.77 28.2933 135.93 29.32 134.77 30.04C133.623 30.76 132.31 31.12 130.83 31.12C129.523 31.12 128.33 30.82 127.25 30.22C126.17 29.6067 125.31 28.76 124.67 27.68C124.043 26.6 123.73 25.38 123.73 24.02ZM138.879 25.44C138.879 24.3333 139.105 23.3533 139.559 22.5C140.025 21.6467 140.652 20.9867 141.439 20.52C142.239 20.04 143.119 19.8 144.079 19.8C144.945 19.8 145.699 19.9733 146.339 20.32C146.992 20.6533 147.512 21.0733 147.899 21.58V19.98H150.199V31H147.899V29.36C147.512 29.88 146.985 30.3133 146.319 30.66C145.652 31.0067 144.892 31.18 144.039 31.18C143.092 31.18 142.225 30.94 141.439 30.46C140.652 29.9667 140.025 29.2867 139.559 28.42C139.105 27.54 138.879 26.5467 138.879 25.44ZM147.899 25.48C147.899 24.72 147.739 24.06 147.419 23.5C147.112 22.94 146.705 22.5133 146.199 22.22C145.692 21.9267 145.145 21.78 144.559 21.78C143.972 21.78 143.425 21.9267 142.919 22.22C142.412 22.5 141.999 22.92 141.679 23.48C141.372 24.0267 141.219 24.68 141.219 25.44C141.219 26.2 141.372 26.8667 141.679 27.44C141.999 28.0133 142.412 28.4533 142.919 28.76C143.439 29.0533 143.985 29.2 144.559 29.2C145.145 29.2 145.692 29.0533 146.199 28.76C146.705 28.4667 147.112 28.04 147.419 27.48C147.739 26.9067 147.899 26.24 147.899 25.48ZM155.534 21.84V27.94C155.534 28.3533 155.627 28.6533 155.814 28.84C156.014 29.0133 156.347 29.1 156.814 29.1H158.214V31H156.414C155.387 31 154.6 30.76 154.054 30.28C153.507 29.8 153.234 29.02 153.234 27.94V21.84H151.934V19.98H153.234V17.24H155.534V19.98H158.214V21.84H155.534ZM170.095 25.22C170.095 25.6333 170.068 26.0067 170.015 26.34H161.595C161.662 27.22 161.988 27.9267 162.575 28.46C163.162 28.9933 163.882 29.26 164.735 29.26C165.962 29.26 166.828 28.7467 167.335 27.72H169.795C169.462 28.7333 168.855 29.5667 167.975 30.22C167.108 30.86 166.028 31.18 164.735 31.18C163.682 31.18 162.735 30.9467 161.895 30.48C161.068 30 160.415 29.3333 159.935 28.48C159.468 27.6133 159.235 26.6133 159.235 25.48C159.235 24.3467 159.462 23.3533 159.915 22.5C160.382 21.6333 161.028 20.9667 161.855 20.5C162.695 20.0333 163.655 19.8 164.735 19.8C165.775 19.8 166.702 20.0267 167.515 20.48C168.328 20.9333 168.962 21.5733 169.415 22.4C169.868 23.2133 170.095 24.1533 170.095 25.22ZM167.715 24.5C167.702 23.66 167.402 22.9867 166.815 22.48C166.228 21.9733 165.502 21.72 164.635 21.72C163.848 21.72 163.175 21.9733 162.615 22.48C162.055 22.9733 161.722 23.6467 161.615 24.5H167.715ZM176.459 19.8C177.312 19.8 178.065 19.9733 178.719 20.32C179.385 20.6533 179.905 21.0733 180.279 21.58V19.98H182.579V31.18C182.579 32.1933 182.365 33.0933 181.939 33.88C181.512 34.68 180.892 35.3067 180.079 35.76C179.279 36.2133 178.319 36.44 177.199 36.44C175.705 36.44 174.465 36.0867 173.479 35.38C172.492 34.6867 171.932 33.74 171.799 32.54H174.059C174.232 33.1133 174.599 33.5733 175.159 33.92C175.732 34.28 176.412 34.46 177.199 34.46C178.119 34.46 178.859 34.18 179.419 33.62C179.992 33.06 180.279 32.2467 180.279 31.18V29.34C179.892 29.86 179.365 30.3 178.699 30.66C178.045 31.0067 177.299 31.18 176.459 31.18C175.499 31.18 174.619 30.94 173.819 30.46C173.032 29.9667 172.405 29.2867 171.939 28.42C171.485 27.54 171.259 26.5467 171.259 25.44C171.259 24.3333 171.485 23.3533 171.939 22.5C172.405 21.6467 173.032 20.9867 173.819 20.52C174.619 20.04 175.499 19.8 176.459 19.8ZM180.279 25.48C180.279 24.72 180.119 24.06 179.799 23.5C179.492 22.94 179.085 22.5133 178.579 22.22C178.072 21.9267 177.525 21.78 176.939 21.78C176.352 21.78 175.805 21.9267 175.299 22.22C174.792 22.5 174.379 22.92 174.059 23.48C173.752 24.0267 173.599 24.68 173.599 25.44C173.599 26.2 173.752 26.8667 174.059 27.44C174.379 28.0133 174.792 28.4533 175.299 28.76C175.819 29.0533 176.365 29.2 176.939 29.2C177.525 29.2 178.072 29.0533 178.579 28.76C179.085 28.4667 179.492 28.04 179.799 27.48C180.119 26.9067 180.279 26.24 180.279 25.48ZM190.033 31.18C188.993 31.18 188.053 30.9467 187.213 30.48C186.373 30 185.713 29.3333 185.233 28.48C184.753 27.6133 184.513 26.6133 184.513 25.48C184.513 24.36 184.76 23.3667 185.253 22.5C185.747 21.6333 186.42 20.9667 187.273 20.5C188.127 20.0333 189.08 19.8 190.133 19.8C191.187 19.8 192.14 20.0333 192.993 20.5C193.847 20.9667 194.52 21.6333 195.013 22.5C195.507 23.3667 195.753 24.36 195.753 25.48C195.753 26.6 195.5 27.5933 194.993 28.46C194.487 29.3267 193.793 30 192.913 30.48C192.047 30.9467 191.087 31.18 190.033 31.18ZM190.033 29.2C190.62 29.2 191.167 29.06 191.673 28.78C192.193 28.5 192.613 28.08 192.933 27.52C193.253 26.96 193.413 26.28 193.413 25.48C193.413 24.68 193.26 24.0067 192.953 23.46C192.647 22.9 192.24 22.48 191.733 22.2C191.227 21.92 190.68 21.78 190.093 21.78C189.507 21.78 188.96 21.92 188.453 22.2C187.96 22.48 187.567 22.9 187.273 23.46C186.98 24.0067 186.833 24.68 186.833 25.48C186.833 26.6667 187.133 27.5867 187.733 28.24C188.347 28.88 189.113 29.2 190.033 29.2ZM199.967 21.58C200.301 21.02 200.741 20.5867 201.287 20.28C201.847 19.96 202.507 19.8 203.267 19.8V22.16H202.687C201.794 22.16 201.114 22.3867 200.647 22.84C200.194 23.2933 199.967 24.08 199.967 25.2V31H197.687V19.98H199.967V21.58ZM214.963 19.98L208.203 36.18H205.843L208.083 30.82L203.743 19.98H206.283L209.383 28.38L212.603 19.98H214.963Z" fill="black"/>
</svg>
