<svg width="263" height="55" viewBox="0 0 263 55" fill="none" xmlns="http://www.w3.org/2000/svg">
<g filter="url(#filter0_d_113_5184)">
<g filter="url(#filter1_d_113_5184)">
<rect x="4" width="255" height="47" rx="8" fill="#FFF967"/>
<rect x="4.5" y="0.5" width="254" height="46" rx="7.5" stroke="#BCB500"/>
</g>
<rect x="9" y="3" width="245" height="21" rx="8" fill="#FFFB91"/>
<path d="M61.1244 24.02C61.1244 22.66 61.4377 21.44 62.0644 20.36C62.7044 19.28 63.5644 18.44 64.6444 17.84C65.7377 17.2267 66.931 16.92 68.2244 16.92C69.7044 16.92 71.0177 17.2867 72.1644 18.02C73.3244 18.74 74.1644 19.7667 74.6844 21.1H71.9444C71.5844 20.3667 71.0844 19.82 70.4444 19.46C69.8044 19.1 69.0644 18.92 68.2244 18.92C67.3044 18.92 66.4844 19.1267 65.7644 19.54C65.0444 19.9533 64.4777 20.5467 64.0644 21.32C63.6644 22.0933 63.4644 22.9933 63.4644 24.02C63.4644 25.0467 63.6644 25.9467 64.0644 26.72C64.4777 27.4933 65.0444 28.0933 65.7644 28.52C66.4844 28.9333 67.3044 29.14 68.2244 29.14C69.0644 29.14 69.8044 28.96 70.4444 28.6C71.0844 28.24 71.5844 27.6933 71.9444 26.96H74.6844C74.1644 28.2933 73.3244 29.32 72.1644 30.04C71.0177 30.76 69.7044 31.12 68.2244 31.12C66.9177 31.12 65.7244 30.82 64.6444 30.22C63.5644 29.6067 62.7044 28.76 62.0644 27.68C61.4377 26.6 61.1244 25.38 61.1244 24.02ZM81.8131 31.18C80.7731 31.18 79.8331 30.9467 78.9931 30.48C78.1531 30 77.4931 29.3333 77.0131 28.48C76.5331 27.6133 76.2931 26.6133 76.2931 25.48C76.2931 24.36 76.5398 23.3667 77.0331 22.5C77.5265 21.6333 78.1998 20.9667 79.0531 20.5C79.9065 20.0333 80.8598 19.8 81.9131 19.8C82.9665 19.8 83.9198 20.0333 84.7731 20.5C85.6265 20.9667 86.2998 21.6333 86.7931 22.5C87.2865 23.3667 87.5331 24.36 87.5331 25.48C87.5331 26.6 87.2798 27.5933 86.7731 28.46C86.2665 29.3267 85.5731 30 84.6931 30.48C83.8265 30.9467 82.8665 31.18 81.8131 31.18ZM81.8131 29.2C82.3998 29.2 82.9465 29.06 83.4531 28.78C83.9731 28.5 84.3931 28.08 84.7131 27.52C85.0331 26.96 85.1931 26.28 85.1931 25.48C85.1931 24.68 85.0398 24.0067 84.7331 23.46C84.4265 22.9 84.0198 22.48 83.5131 22.2C83.0065 21.92 82.4598 21.78 81.8731 21.78C81.2865 21.78 80.7398 21.92 80.2331 22.2C79.7398 22.48 79.3465 22.9 79.0531 23.46C78.7598 24.0067 78.6131 24.68 78.6131 25.48C78.6131 26.6667 78.9131 27.5867 79.5131 28.24C80.1265 28.88 80.8931 29.2 81.8131 29.2ZM95.027 19.8C95.8937 19.8 96.667 19.98 97.347 20.34C98.0404 20.7 98.5804 21.2333 98.967 21.94C99.3537 22.6467 99.547 23.5 99.547 24.5V31H97.287V24.84C97.287 23.8533 97.0404 23.1 96.547 22.58C96.0537 22.0467 95.3804 21.78 94.527 21.78C93.6737 21.78 92.9937 22.0467 92.487 22.58C91.9937 23.1 91.747 23.8533 91.747 24.84V31H89.467V19.98H91.747V21.24C92.1204 20.7867 92.5937 20.4333 93.167 20.18C93.7537 19.9267 94.3737 19.8 95.027 19.8ZM104.795 21.84V27.94C104.795 28.3533 104.889 28.6533 105.075 28.84C105.275 29.0133 105.609 29.1 106.075 29.1H107.475V31H105.675C104.649 31 103.862 30.76 103.315 30.28C102.769 29.8 102.495 29.02 102.495 27.94V21.84H101.195V19.98H102.495V17.24H104.795V19.98H107.475V21.84H104.795ZM110.417 18.52C110.003 18.52 109.657 18.38 109.377 18.1C109.097 17.82 108.957 17.4733 108.957 17.06C108.957 16.6467 109.097 16.3 109.377 16.02C109.657 15.74 110.003 15.6 110.417 15.6C110.817 15.6 111.157 15.74 111.437 16.02C111.717 16.3 111.857 16.6467 111.857 17.06C111.857 17.4733 111.717 17.82 111.437 18.1C111.157 18.38 110.817 18.52 110.417 18.52ZM111.537 19.98V31H109.257V19.98H111.537ZM119.77 19.8C120.637 19.8 121.41 19.98 122.09 20.34C122.783 20.7 123.323 21.2333 123.71 21.94C124.097 22.6467 124.29 23.5 124.29 24.5V31H122.03V24.84C122.03 23.8533 121.783 23.1 121.29 22.58C120.797 22.0467 120.123 21.78 119.27 21.78C118.417 21.78 117.737 22.0467 117.23 22.58C116.737 23.1 116.49 23.8533 116.49 24.84V31H114.21V19.98H116.49V21.24C116.863 20.7867 117.337 20.4333 117.91 20.18C118.497 19.9267 119.117 19.8 119.77 19.8ZM136.858 19.98V31H134.578V29.7C134.218 30.1533 133.745 30.5133 133.158 30.78C132.585 31.0333 131.972 31.16 131.318 31.16C130.452 31.16 129.672 30.98 128.978 30.62C128.298 30.26 127.758 29.7267 127.358 29.02C126.972 28.3133 126.778 27.46 126.778 26.46V19.98H129.038V26.12C129.038 27.1067 129.285 27.8667 129.778 28.4C130.272 28.92 130.945 29.18 131.798 29.18C132.652 29.18 133.325 28.92 133.818 28.4C134.325 27.8667 134.578 27.1067 134.578 26.12V19.98H136.858ZM149.647 25.22C149.647 25.6333 149.62 26.0067 149.567 26.34H141.147C141.213 27.22 141.54 27.9267 142.127 28.46C142.713 28.9933 143.433 29.26 144.287 29.26C145.513 29.26 146.38 28.7467 146.887 27.72H149.347C149.013 28.7333 148.407 29.5667 147.527 30.22C146.66 30.86 145.58 31.18 144.287 31.18C143.233 31.18 142.287 30.9467 141.447 30.48C140.62 30 139.967 29.3333 139.487 28.48C139.02 27.6133 138.787 26.6133 138.787 25.48C138.787 24.3467 139.013 23.3533 139.467 22.5C139.933 21.6333 140.58 20.9667 141.407 20.5C142.247 20.0333 143.207 19.8 144.287 19.8C145.327 19.8 146.253 20.0267 147.067 20.48C147.88 20.9333 148.513 21.5733 148.967 22.4C149.42 23.2133 149.647 24.1533 149.647 25.22ZM147.267 24.5C147.253 23.66 146.953 22.9867 146.367 22.48C145.78 21.9733 145.053 21.72 144.187 21.72C143.4 21.72 142.727 21.9733 142.167 22.48C141.607 22.9733 141.273 23.6467 141.167 24.5H147.267ZM165.426 17.1V18.96H161.726V31H159.446V18.96H155.726V17.1H165.426ZM169.695 21.58C170.028 21.02 170.468 20.5867 171.015 20.28C171.575 19.96 172.235 19.8 172.995 19.8V22.16H172.415C171.522 22.16 170.842 22.3867 170.375 22.84C169.922 23.2933 169.695 24.08 169.695 25.2V31H167.415V19.98H169.695V21.58ZM175.931 18.52C175.517 18.52 175.171 18.38 174.891 18.1C174.611 17.82 174.471 17.4733 174.471 17.06C174.471 16.6467 174.611 16.3 174.891 16.02C175.171 15.74 175.517 15.6 175.931 15.6C176.331 15.6 176.671 15.74 176.951 16.02C177.231 16.3 177.371 16.6467 177.371 17.06C177.371 17.4733 177.231 17.82 176.951 18.1C176.671 18.38 176.331 18.52 175.931 18.52ZM177.051 19.98V31H174.771V19.98H177.051ZM183.984 28.96L187.104 19.98H189.524L185.324 31H182.604L178.424 19.98H180.864L183.984 28.96ZM192.087 18.52C191.674 18.52 191.327 18.38 191.047 18.1C190.767 17.82 190.627 17.4733 190.627 17.06C190.627 16.6467 190.767 16.3 191.047 16.02C191.327 15.74 191.674 15.6 192.087 15.6C192.487 15.6 192.827 15.74 193.107 16.02C193.387 16.3 193.527 16.6467 193.527 17.06C193.527 17.4733 193.387 17.82 193.107 18.1C192.827 18.38 192.487 18.52 192.087 18.52ZM193.207 19.98V31H190.927V19.98H193.207ZM195.121 25.44C195.121 24.3333 195.348 23.3533 195.801 22.5C196.268 21.6467 196.894 20.9867 197.681 20.52C198.481 20.04 199.361 19.8 200.321 19.8C201.188 19.8 201.941 19.9733 202.581 20.32C203.234 20.6533 203.754 21.0733 204.141 21.58V19.98H206.441V31H204.141V29.36C203.754 29.88 203.228 30.3133 202.561 30.66C201.894 31.0067 201.134 31.18 200.281 31.18C199.334 31.18 198.468 30.94 197.681 30.46C196.894 29.9667 196.268 29.2867 195.801 28.42C195.348 27.54 195.121 26.5467 195.121 25.44ZM204.141 25.48C204.141 24.72 203.981 24.06 203.661 23.5C203.354 22.94 202.948 22.5133 202.441 22.22C201.934 21.9267 201.388 21.78 200.801 21.78C200.214 21.78 199.668 21.9267 199.161 22.22C198.654 22.5 198.241 22.92 197.921 23.48C197.614 24.0267 197.461 24.68 197.461 25.44C197.461 26.2 197.614 26.8667 197.921 27.44C198.241 28.0133 198.654 28.4533 199.161 28.76C199.681 29.0533 200.228 29.2 200.801 29.2C201.388 29.2 201.934 29.0533 202.441 28.76C202.948 28.4667 203.354 28.04 203.661 27.48C203.981 26.9067 204.141 26.24 204.141 25.48Z" fill="#1F1F1F"/>
</g>
<defs>
<filter id="filter0_d_113_5184" x="0" y="0" width="263" height="55" filterUnits="userSpaceOnUse" color-interpolation-filters="sRGB">
<feFlood flood-opacity="0" result="BackgroundImageFix"/>
<feColorMatrix in="SourceAlpha" type="matrix" values="0 0 0 0 0 0 0 0 0 0 0 0 0 0 0 0 0 0 127 0" result="hardAlpha"/>
<feOffset dy="4"/>
<feGaussianBlur stdDeviation="2"/>
<feComposite in2="hardAlpha" operator="out"/>
<feColorMatrix type="matrix" values="0 0 0 0 0 0 0 0 0 0 0 0 0 0 0 0 0 0 0.25 0"/>
<feBlend mode="normal" in2="BackgroundImageFix" result="effect1_dropShadow_113_5184"/>
<feBlend mode="normal" in="SourceGraphic" in2="effect1_dropShadow_113_5184" result="shape"/>
</filter>
<filter id="filter1_d_113_5184" x="3" y="0" width="257" height="51" filterUnits="userSpaceOnUse" color-interpolation-filters="sRGB">
<feFlood flood-opacity="0" result="BackgroundImageFix"/>
<feColorMatrix in="SourceAlpha" type="matrix" values="0 0 0 0 0 0 0 0 0 0 0 0 0 0 0 0 0 0 127 0" result="hardAlpha"/>
<feOffset dy="3"/>
<feGaussianBlur stdDeviation="0.5"/>
<feComposite in2="hardAlpha" operator="out"/>
<feColorMatrix type="matrix" values="0 0 0 0 0.595833 0 0 0 0 0.572314 0 0 0 0 0 0 0 0 1 0"/>
<feBlend mode="normal" in2="BackgroundImageFix" result="effect1_dropShadow_113_5184"/>
<feBlend mode="normal" in="SourceGraphic" in2="effect1_dropShadow_113_5184" result="shape"/>
</filter>
</defs>
</svg>
